<svg xmlns="http://www.w3.org/2000/svg" xmlns:xlink="http://www.w3.org/1999/xlink" width="980" height="581.04"><rect width="980" height="581.04" rx="5" ry="5" class="a"/><svg y="0%" x="0%"><circle cx="20" cy="20" r="6" fill="#ff5f58"/><circle cx="40" cy="20" r="6" fill="#ffbd2e"/><circle cx="60" cy="20" r="6" fill="#18c132"/></svg><svg height="521.04" viewBox="0 0 94 52.104" width="940" x="15" xmlns="http://www.w3.org/2000/svg" xmlns:xlink="http://www.w3.org/1999/xlink" y="50"><style>@keyframes n{0%{transform:translateX(0)}.06%{transform:translateX(-94px)}.08%{transform:translateX(-188px)}.94%{transform:translateX(-282px)}1.37%{transform:translateX(-376px)}1.79%{transform:translateX(-470px)}2.23%{transform:translateX(-564px)}2.65%{transform:translateX(-658px)}3.07%{transform:translateX(-752px)}3.5%{transform:translateX(-846px)}3.94%{transform:translateX(-940px)}4.38%{transform:translateX(-1034px)}5.13%{transform:translateX(-1222px)}5.33%{transform:translateX(-1410px)}16.06%{transform:translateX(-1598px)}45.55%{transform:translateX(-1786px)}45.65%{transform:translateX(-2444px)}45.66%{transform:translateX(-2820px)}45.67%{transform:translateX(-2914px)}45.68%{transform:translateX(-3290px)}45.9%{transform:translateX(-3478px)}45.95%{transform:translateX(-3572px)}60.81%{transform:translateX(-3666px)}61.24%{transform:translateX(-3760px)}61.68%{transform:translateX(-3854px)}62.11%{transform:translateX(-3948px)}62.55%{transform:translateX(-4042px)}62.99%{transform:translateX(-4136px)}63.43%{transform:translateX(-4230px)}63.87%{transform:translateX(-4324px)}64.72%{transform:translateX(-4418px)}65.14%{transform:translateX(-4512px)}65.57%{transform:translateX(-4606px)}66.01%{transform:translateX(-4700px)}66.45%{transform:translateX(-4794px)}67.31%{transform:translateX(-4888px)}67.73%{transform:translateX(-4982px)}68.17%{transform:translateX(-5076px)}68.62%{transform:translateX(-5170px)}69.48%{transform:translateX(-5264px)}69.9%{transform:translateX(-5358px)}70.32%{transform:translateX(-5452px)}70.75%{transform:translateX(-5546px)}71.19%{transform:translateX(-5640px)}71.63%{transform:translateX(-5734px)}72.06%{transform:translateX(-5828px)}72.49%{transform:translateX(-5922px)}73.34%{transform:translateX(-6016px)}74.2%{transform:translateX(-6110px)}74.62%{transform:translateX(-6204px)}75.06%{transform:translateX(-6298px)}75.48%{transform:translateX(-6392px)}75.91%{transform:translateX(-6486px)}76.35%{transform:translateX(-6580px)}76.77%{transform:translateX(-6674px)}to{transform:translateX(-6768px)}}.a{fill:#282d35}.f{fill:#a8cc8c;white-space:pre}.g{fill:#b9c0cb}.g,.h,.i,.j,.k{white-space:pre}.h{fill:#b9c0cb;font-weight:700}.i,.j,.k{fill:#e88388}.j,.k{fill:#66c2cd}.k{fill:#dbab79}</style><g font-family="Monaco,Consolas,Menlo,'Bitstream Vera Sans Mono','Powerline Symbols',monospace" font-size="1.67"><defs><symbol id="1"><text y="1.67" class="f">λ</text></symbol><symbol id="2"><text y="1.67" class="f">λ</text><text x="2.004" y="1.67" class="g">yarn</text><text x="7.014" y="1.67" class="g">build</text></symbol><symbol id="3"><text y="1.67" class="h">yarn</text><text x="5.01" y="1.67" class="h">run</text><text x="9.018" y="1.67" class="h">v1.22.4</text></symbol><symbol id="4"><text y="1.67" class="g">$</text><text x="2.004" y="1.67" class="g">react-app-rewired</text><text x="20.04" y="1.67" class="g">build</text><text x="26.052" y="1.67" class="g">--scripts-version</text><text x="44.088" y="1.67" class="g">occ-react-scripts</text></symbol><symbol id="5"><text y="1.67" class="i">occ-react-app.</text></symbol><symbol id="6"><text y="1.67" class="g">Creating</text><text x="9.018" y="1.67" class="g">an</text><text x="12.024" y="1.67" class="g">optimized</text><text x="22.044" y="1.67" class="g">production</text><text x="33.066" y="1.67" class="g">build...</text></symbol><symbol id="7"><text y="1.67" class="f">Compiled</text><text x="9.018" y="1.67" class="f">successfully.</text></symbol><symbol id="8"><text y="1.67" class="g">File</text><text x="5.01" y="1.67" class="g">sizes</text><text x="11.022" y="1.67" class="g">after</text><text x="17.034" y="1.67" class="g">gzip:</text></symbol><symbol id="9"><text x="2.004" y="1.67" class="g">70.1</text><text x="7.014" y="1.67" class="g">KB</text><text x="12.024" y="1.67" class="g">build/static/js/</text><text x="28.056" y="1.67" class="j">header.widget.bd4dcb05576c1de0f11d.js</text></symbol><symbol id="10"><text x="2.004" y="1.67" class="g">45.44</text><text x="8.016" y="1.67" class="g">KB</text><text x="12.024" y="1.67" class="g">build/static/js/</text><text x="28.056" y="1.67" class="j">footer.widget.bd4dcb05576c1de0f11d.js</text></symbol><symbol id="11"><text y="1.67" class="g">The</text><text x="4.008" y="1.67" class="g">project</text><text x="12.024" y="1.67" class="g">was</text><text x="16.032" y="1.67" class="g">built</text><text x="22.044" y="1.67" class="g">assuming</text><text x="31.062" y="1.67" class="g">it</text><text x="34.068" y="1.67" class="g">is</text><text x="37.074" y="1.67" class="g">hosted</text><text x="44.088" y="1.67" class="g">at</text><text x="47.094" y="1.67" class="f">/ccstorex/custom/v1/</text><text x="67.134" y="1.67" class="g">.</text></symbol><symbol id="12"><text y="1.67" class="g">You</text><text x="4.008" y="1.67" class="g">can</text><text x="8.016" y="1.67" class="g">control</text><text x="16.032" y="1.67" class="g">this</text><text x="21.042" y="1.67" class="g">with</text><text x="26.052" y="1.67" class="g">the</text><text x="30.06" y="1.67" class="f">homepage</text><text x="39.078" y="1.67" class="g">field</text><text x="45.09" y="1.67" class="g">in</text><text x="48.096" y="1.67" class="g">your</text><text x="53.106" y="1.67" class="j">package.json</text><text x="65.13" y="1.67" class="g">.</text></symbol><symbol id="13"><text y="1.67" class="g">The</text><text x="4.008" y="1.67" class="j">build</text><text x="10.02" y="1.67" class="g">folder</text><text x="17.034" y="1.67" class="g">is</text><text x="20.04" y="1.67" class="g">ready</text><text x="26.052" y="1.67" class="g">to</text><text x="29.058" y="1.67" class="g">be</text><text x="32.064" y="1.67" class="g">deployed.</text></symbol><symbol id="14"><text y="1.67" class="g">Find</text><text x="5.01" y="1.67" class="g">out</text><text x="9.018" y="1.67" class="g">more</text><text x="14.028" y="1.67" class="g">about</text><text x="20.04" y="1.67" class="g">deployment</text><text x="31.062" y="1.67" class="g">here:</text></symbol><symbol id="15"><text x="2.004" y="1.67" class="k">bit.ly/CRA-deploy</text></symbol><symbol id="16"><text y="1.67" class="g">Preparing</text><text x="10.02" y="1.67" class="g">your</text><text x="15.03" y="1.67" class="j">platform</text><text x="24.048" y="1.67" class="g">folder</text><text x="31.062" y="1.67" class="g">so</text><text x="34.068" y="1.67" class="g">that</text><text x="39.078" y="1.67" class="g">it</text><text x="42.084" y="1.67" class="g">is</text><text x="45.09" y="1.67" class="g">ready</text><text x="51.102" y="1.67" class="g">to</text><text x="54.108" y="1.67" class="g">be</text><text x="57.114" y="1.67" class="g">deployed...</text></symbol><symbol id="17"><text x="3.006" y="1.67" class="f">✔</text><text x="5.01" y="1.67" class="g">/widget</text><text x="12.024" y="1.67" class="f">/FooterV2/</text><text x="22.044" y="1.67" class="g">js/footer.js</text></symbol><symbol id="18"><text x="3.006" y="1.67" class="f">✔</text><text x="5.01" y="1.67" class="g">/widget</text><text x="12.024" y="1.67" class="f">/HeaderV2/</text><text x="22.044" y="1.67" class="g">js/header.js</text></symbol><symbol id="19"><text x="3.006" y="1.67" class="i">✖</text><text x="5.01" y="1.67" class="g">/widget</text><text x="12.024" y="1.67" class="f">/MapAddress/</text><text x="24.048" y="1.67" class="g">js/mapaddress.js</text></symbol><symbol id="20"><text y="1.67" class="g">The</text><text x="4.008" y="1.67" class="j">platform</text><text x="13.026" y="1.67" class="g">folder</text><text x="20.04" y="1.67" class="g">is</text><text x="23.046" y="1.67" class="g">ready</text><text x="29.058" y="1.67" class="g">to</text><text x="32.064" y="1.67" class="g">be</text><text x="35.07" y="1.67" class="g">deployed.</text></symbol><symbol id="21"><text x="1.002" y="1.67" class="k">https://bit.ly/2YSc5vH</text></symbol><symbol id="22"><text y="1.67" class="g">✨</text><text x="3.006" y="1.67" class="g">Done</text><text x="8.016" y="1.67" class="g">in</text><text x="11.022" y="1.67" class="g">8.79s.</text></symbol><symbol id="23"><text y="1.67" class="f">λ</text><text x="2.004" y="1.67" class="g">npx</text></symbol><symbol id="24"><text y="1.67" class="f">λ</text><text x="2.004" y="1.67" class="g">npx</text><text x="6.012" y="1.67" class="g">dcu</text></symbol><symbol id="25"><text y="1.67" class="f">λ</text><text x="2.004" y="1.67" class="g">npx</text><text x="6.012" y="1.67" class="g">dcu</text><text x="10.02" y="1.67" class="g">-k</text></symbol><symbol id="26"><text y="1.67" class="f">λ</text><text x="2.004" y="1.67" class="g">npx</text><text x="6.012" y="1.67" class="g">dcu</text><text x="10.02" y="1.67" class="g">-k</text><text x="13.026" y="1.67" class="g">$KTEST</text></symbol><symbol id="27"><text y="1.67" class="f">λ</text><text x="2.004" y="1.67" class="g">npx</text><text x="6.012" y="1.67" class="g">dcu</text><text x="10.02" y="1.67" class="g">-k</text><text x="13.026" y="1.67" class="g">$KTEST</text><text x="20.04" y="1.67" class="g">-n</text></symbol><symbol id="28"><text y="1.67" class="f">λ</text><text x="2.004" y="1.67" class="g">npx</text><text x="6.012" y="1.67" class="g">dcu</text><text x="10.02" y="1.67" class="g">-k</text><text x="13.026" y="1.67" class="g">$KTEST</text><text x="20.04" y="1.67" class="g">-n</text><text x="23.046" y="1.67" class="g">$NTEST</text></symbol><symbol id="29"><text y="1.67" class="f">λ</text><text x="2.004" y="1.67" class="g">npx</text><text x="6.012" y="1.67" class="g">dcu</text><text x="10.02" y="1.67" class="g">-k</text><text x="13.026" y="1.67" class="g">$KTEST</text><text x="20.04" y="1.67" class="g">-n</text><text x="23.046" y="1.67" class="g">$NTEST</text><text x="30.06" y="1.67" class="g">-x</text></symbol><symbol id="30"><text y="1.67" class="f">λ</text><text x="2.004" y="1.67" class="g">npx</text><text x="6.012" y="1.67" class="g">dcu</text><text x="10.02" y="1.67" class="g">-k</text><text x="13.026" y="1.67" class="g">$KTEST</text><text x="20.04" y="1.67" class="g">-n</text><text x="23.046" y="1.67" class="g">$NTEST</text><text x="30.06" y="1.67" class="g">-x</text><text x="33.066" y="1.67" class="g">.</text></symbol><symbol id="a"><path fill="transparent" d="M0 0h94v24H0z"/></symbol><symbol id="b"><path fill="#6f7683" d="M0 0h1.102v2.171H0z"/></symbol></defs><path class="a" d="M0 0h94v52.104H0z"/><g style="animation-duration:21.56382s;animation-iteration-count:infinite;animation-name:n;animation-timing-function:steps(1,end)"><svg width="6862"><svg><use xlink:href="#a"/><use xlink:href="#b" x="-.004"/></svg><svg x="94"><use xlink:href="#a"/><use xlink:href="#b" x="1.996"/><use xlink:href="#1"/></svg><svg x="188"><use xlink:href="#a"/><use xlink:href="#b" x="2.996"/><text y="1.67" class="f">λ</text><text x="2.004" y="1.67" class="g">y</text></svg><svg x="282"><use xlink:href="#a"/><use xlink:href="#b" x="3.996"/><text y="1.67" class="f">λ</text><text x="2.004" y="1.67" class="g">ya</text></svg><svg x="376"><use xlink:href="#a"/><use xlink:href="#b" x="4.996"/><text y="1.67" class="f">λ</text><text x="2.004" y="1.67" class="g">yar</text></svg><svg x="470"><use xlink:href="#a"/><use xlink:href="#b" x="5.996"/><text y="1.67" class="f">λ</text><text x="2.004" y="1.67" class="g">yarn</text></svg><svg x="564"><use xlink:href="#a"/><use xlink:href="#b" x="7.996"/><text y="1.67" class="f">λ</text><text x="2.004" y="1.67" class="g">yarn</text><text x="7.014" y="1.67" class="g">b</text></svg><svg x="658"><use xlink:href="#a"/><use xlink:href="#b" x="8.996"/><text y="1.67" class="f">λ</text><text x="2.004" y="1.67" class="g">yarn</text><text x="7.014" y="1.67" class="g">bu</text></svg><svg x="752"><use xlink:href="#a"/><use xlink:href="#b" x="9.996"/><text y="1.67" class="f">λ</text><text x="2.004" y="1.67" class="g">yarn</text><text x="7.014" y="1.67" class="g">bui</text></svg><svg x="846"><use xlink:href="#a"/><use xlink:href="#b" x="10.996"/><text y="1.67" class="f">λ</text><text x="2.004" y="1.67" class="g">yarn</text><text x="7.014" y="1.67" class="g">buil</text></svg><svg x="940"><use xlink:href="#a"/><use xlink:href="#b" x="11.996"/><use xlink:href="#2"/></svg><svg x="1034"><use xlink:href="#a"/><use xlink:href="#b" x="-.004" y="2.146"/><use xlink:href="#2"/></svg><svg x="1128"><use xlink:href="#a"/><use xlink:href="#b" x="-.004" y="2.146"/><use xlink:href="#2"/></svg><svg x="1222"><use xlink:href="#a"/><use xlink:href="#b" x="-.004" y="4.317"/><use xlink:href="#2"/><use xlink:href="#3" y="2.171"/></svg><svg x="1316"><use xlink:href="#a"/><use xlink:href="#b" x="-.004" y="4.317"/><use xlink:href="#2"/><use xlink:href="#3" y="2.171"/></svg><svg x="1410"><use xlink:href="#a"/><use xlink:href="#b" x="-.004" y="6.488"/><use xlink:href="#2"/><use xlink:href="#3" y="2.171"/><use xlink:href="#4" y="4.342"/></svg><svg x="1504"><use xlink:href="#a"/><use xlink:href="#b" x="-.004" y="10.83"/><use xlink:href="#2"/><use xlink:href="#3" y="2.171"/><use xlink:href="#4" y="4.342"/><use xlink:href="#5" y="6.513"/></svg><svg x="1598"><use xlink:href="#a"/><use xlink:href="#b" x="-.004" y="13.001"/><use xlink:href="#2"/><use xlink:href="#3" y="2.171"/><use xlink:href="#4" y="4.342"/><use xlink:href="#5" y="6.513"/><use xlink:href="#6" y="10.855"/></svg><svg x="1692"><use xlink:href="#a"/><use xlink:href="#b" x="-.004" y="17.343"/><use xlink:href="#2"/><use xlink:href="#3" y="2.171"/><use xlink:href="#4" y="4.342"/><use xlink:href="#5" y="6.513"/><use xlink:href="#6" y="10.855"/><use xlink:href="#7" y="13.026"/></svg><svg x="1786"><use xlink:href="#a"/><use xlink:href="#b" x="-.004" y="21.685"/><use xlink:href="#2"/><use xlink:href="#3" y="2.171"/><use xlink:href="#4" y="4.342"/><use xlink:href="#5" y="6.513"/><use xlink:href="#6" y="10.855"/><use xlink:href="#7" y="13.026"/><use xlink:href="#8" y="17.368"/></svg><svg x="1880"><use xlink:href="#a"/><use xlink:href="#b" x="-.004" y="23.856"/><use xlink:href="#2"/><use xlink:href="#3" y="2.171"/><use xlink:href="#4" y="4.342"/><use xlink:href="#5" y="6.513"/><use xlink:href="#6" y="10.855"/><use xlink:href="#7" y="13.026"/><use xlink:href="#8" y="17.368"/><use xlink:href="#9" y="21.71"/></svg><svg x="1974"><use xlink:href="#a"/><use xlink:href="#b" x="-.004" y="26.027"/><use xlink:href="#2"/><use xlink:href="#3" y="2.171"/><use xlink:href="#4" y="4.342"/><use xlink:href="#5" y="6.513"/><use xlink:href="#6" y="10.855"/><use xlink:href="#7" y="13.026"/><use xlink:href="#8" y="17.368"/><use xlink:href="#9" y="21.71"/><use xlink:href="#10" y="23.881"/></svg><svg x="2068"><use xlink:href="#a"/><use xlink:href="#b" x="-.004" y="28.198"/><use xlink:href="#2"/><use xlink:href="#3" y="2.171"/><use xlink:href="#4" y="4.342"/><use xlink:href="#5" y="6.513"/><use xlink:href="#6" y="10.855"/><use xlink:href="#7" y="13.026"/><use xlink:href="#8" y="17.368"/><use xlink:href="#9" y="21.71"/><use xlink:href="#10" y="23.881"/></svg><svg x="2162"><use xlink:href="#a"/><use xlink:href="#b" x="-.004" y="30.369"/><use xlink:href="#2"/><use xlink:href="#3" y="2.171"/><use xlink:href="#4" y="4.342"/><use xlink:href="#5" y="6.513"/><use xlink:href="#6" y="10.855"/><use xlink:href="#7" y="13.026"/><use xlink:href="#8" y="17.368"/><use xlink:href="#9" y="21.71"/><use xlink:href="#10" y="23.881"/><use xlink:href="#11" y="28.223"/></svg><svg x="2256"><use xlink:href="#a"/><use xlink:href="#b" x="-.004" y="32.54"/><use xlink:href="#2"/><use xlink:href="#3" y="2.171"/><use xlink:href="#4" y="4.342"/><use xlink:href="#5" y="6.513"/><use xlink:href="#6" y="10.855"/><use xlink:href="#7" y="13.026"/><use xlink:href="#8" y="17.368"/><use xlink:href="#9" y="21.71"/><use xlink:href="#10" y="23.881"/><use xlink:href="#11" y="28.223"/><use xlink:href="#12" y="30.394"/></svg><svg x="2350"><use xlink:href="#a"/><use xlink:href="#b" x="-.004" y="34.711"/><use xlink:href="#2"/><use xlink:href="#3" y="2.171"/><use xlink:href="#4" y="4.342"/><use xlink:href="#5" y="6.513"/><use xlink:href="#6" y="10.855"/><use xlink:href="#7" y="13.026"/><use xlink:href="#8" y="17.368"/><use xlink:href="#9" y="21.71"/><use xlink:href="#10" y="23.881"/><use xlink:href="#11" y="28.223"/><use xlink:href="#12" y="30.394"/></svg><svg x="2444"><use xlink:href="#a"/><use xlink:href="#b" x="-.004" y="36.882"/><use xlink:href="#2"/><use xlink:href="#3" y="2.171"/><use xlink:href="#4" y="4.342"/><use xlink:href="#5" y="6.513"/><use xlink:href="#6" y="10.855"/><use xlink:href="#7" y="13.026"/><use xlink:href="#8" y="17.368"/><use xlink:href="#9" y="21.71"/><use xlink:href="#10" y="23.881"/><use xlink:href="#11" y="28.223"/><use xlink:href="#12" y="30.394"/><use xlink:href="#13" y="34.736"/></svg><svg x="2538"><use xlink:href="#a"/><use xlink:href="#b" x="-.004" y="43.395"/><use xlink:href="#2"/><use xlink:href="#3" y="2.171"/><use xlink:href="#4" y="4.342"/><use xlink:href="#5" y="6.513"/><use xlink:href="#6" y="10.855"/><use xlink:href="#7" y="13.026"/><use xlink:href="#8" y="17.368"/><use xlink:href="#9" y="21.71"/><use xlink:href="#10" y="23.881"/><use xlink:href="#11" y="28.223"/><use xlink:href="#12" y="30.394"/><use xlink:href="#13" y="34.736"/><use xlink:href="#14" y="39.078"/></svg><svg x="2632"><use xlink:href="#a"/><use xlink:href="#b" x="-.004" y="45.566"/><use xlink:href="#2"/><use xlink:href="#3" y="2.171"/><use xlink:href="#4" y="4.342"/><use xlink:href="#5" y="6.513"/><use xlink:href="#6" y="10.855"/><use xlink:href="#7" y="13.026"/><use xlink:href="#8" y="17.368"/><use xlink:href="#9" y="21.71"/><use xlink:href="#10" y="23.881"/><use xlink:href="#11" y="28.223"/><use xlink:href="#12" y="30.394"/><use xlink:href="#13" y="34.736"/><use xlink:href="#14" y="39.078"/><use xlink:href="#15" y="43.42"/></svg><svg x="2726"><use xlink:href="#a"/><use xlink:href="#b" x="-.004" y="47.737"/><use xlink:href="#2"/><use xlink:href="#3" y="2.171"/><use xlink:href="#4" y="4.342"/><use xlink:href="#5" y="6.513"/><use xlink:href="#6" y="10.855"/><use xlink:href="#7" y="13.026"/><use xlink:href="#8" y="17.368"/><use xlink:href="#9" y="21.71"/><use xlink:href="#10" y="23.881"/><use xlink:href="#11" y="28.223"/><use xlink:href="#12" y="30.394"/><use xlink:href="#13" y="34.736"/><use xlink:href="#14" y="39.078"/><use xlink:href="#15" y="43.42"/></svg><svg x="2820"><use xlink:href="#a"/><use xlink:href="#b" x="-.004" y="49.908"/><use xlink:href="#3"/><use xlink:href="#4" y="2.171"/><use xlink:href="#5" y="4.342"/><use xlink:href="#6" y="8.684"/><use xlink:href="#7" y="10.855"/><use xlink:href="#8" y="15.197"/><use xlink:href="#9" y="19.539"/><use xlink:href="#10" y="21.71"/><use xlink:href="#11" y="26.052"/><use xlink:href="#12" y="28.223"/><use xlink:href="#13" y="32.565"/><use xlink:href="#14" y="36.907"/><use xlink:href="#15" y="41.249"/><use xlink:href="#16" y="45.591"/></svg><svg x="2914"><use xlink:href="#a"/><use xlink:href="#b" x="-.004" y="49.908"/><use xlink:href="#4"/><use xlink:href="#5" y="2.171"/><use xlink:href="#6" y="6.513"/><use xlink:href="#7" y="8.684"/><use xlink:href="#8" y="13.026"/><use xlink:href="#9" y="17.368"/><use xlink:href="#10" y="19.539"/><use xlink:href="#11" y="23.881"/><use xlink:href="#12" y="26.052"/><use xlink:href="#13" y="30.394"/><use xlink:href="#14" y="34.736"/><use xlink:href="#15" y="39.078"/><use xlink:href="#16" y="43.42"/><use xlink:href="#17" y="47.762"/></svg><svg x="3008"><use xlink:href="#a"/><use xlink:href="#b" x="-.004" y="49.908"/><use xlink:href="#5"/><use xlink:href="#6" y="4.342"/><use xlink:href="#7" y="6.513"/><use xlink:href="#8" y="10.855"/><use xlink:href="#9" y="15.197"/><use xlink:href="#10" y="17.368"/><use xlink:href="#11" y="21.71"/><use xlink:href="#12" y="23.881"/><use xlink:href="#13" y="28.223"/><use xlink:href="#14" y="32.565"/><use xlink:href="#15" y="36.907"/><use xlink:href="#16" y="41.249"/><use xlink:href="#17" y="45.591"/><use xlink:href="#18" y="47.762"/></svg><svg x="3102"><use xlink:href="#a"/><use xlink:href="#b" x="-.004" y="49.908"/><use xlink:href="#6" y="2.171"/><use xlink:href="#7" y="4.342"/><use xlink:href="#8" y="8.684"/><use xlink:href="#9" y="13.026"/><use xlink:href="#10" y="15.197"/><use xlink:href="#11" y="19.539"/><use xlink:href="#12" y="21.71"/><use xlink:href="#13" y="26.052"/><use xlink:href="#14" y="30.394"/><use xlink:href="#15" y="34.736"/><use xlink:href="#16" y="39.078"/><use xlink:href="#17" y="43.42"/><use xlink:href="#18" y="45.591"/><use xlink:href="#19" y="47.762"/></svg><svg x="3196"><use xlink:href="#a"/><use xlink:href="#b" x="-.004" y="49.908"/><use xlink:href="#8"/><use xlink:href="#9" y="4.342"/><use xlink:href="#10" y="6.513"/><use xlink:href="#11" y="10.855"/><use xlink:href="#12" y="13.026"/><use xlink:href="#13" y="17.368"/><use xlink:href="#14" y="21.71"/><use xlink:href="#15" y="26.052"/><use xlink:href="#16" y="30.394"/><use xlink:href="#17" y="34.736"/><use xlink:href="#18" y="36.907"/><use xlink:href="#19" y="39.078"/><use xlink:href="#20" y="43.42"/><use xlink:href="#14" y="45.591"/></svg><svg x="3290"><use xlink:href="#a"/><use xlink:href="#b" x="-.004" y="49.908"/><use xlink:href="#9"/><use xlink:href="#10" y="2.171"/><use xlink:href="#11" y="6.513"/><use xlink:href="#12" y="8.684"/><use xlink:href="#13" y="13.026"/><use xlink:href="#14" y="17.368"/><use xlink:href="#15" y="21.71"/><use xlink:href="#16" y="26.052"/><use xlink:href="#17" y="30.394"/><use xlink:href="#18" y="32.565"/><use xlink:href="#19" y="34.736"/><use xlink:href="#20" y="39.078"/><use xlink:href="#14" y="41.249"/><use xlink:href="#21" y="45.591"/></svg><svg x="3384"><use xlink:href="#a"/><use xlink:href="#b" x="-.004" y="49.908"/><use xlink:href="#9"/><use xlink:href="#10" y="2.171"/><use xlink:href="#11" y="6.513"/><use xlink:href="#12" y="8.684"/><use xlink:href="#13" y="13.026"/><use xlink:href="#14" y="17.368"/><use xlink:href="#15" y="21.71"/><use xlink:href="#16" y="26.052"/><use xlink:href="#17" y="30.394"/><use xlink:href="#18" y="32.565"/><use xlink:href="#19" y="34.736"/><use xlink:href="#20" y="39.078"/><use xlink:href="#14" y="41.249"/><use xlink:href="#21" y="45.591"/></svg><svg x="3478"><use xlink:href="#a"/><use xlink:href="#b" x="-.004" y="49.908"/><use xlink:href="#10"/><use xlink:href="#11" y="4.342"/><use xlink:href="#12" y="6.513"/><use xlink:href="#13" y="10.855"/><use xlink:href="#14" y="15.197"/><use xlink:href="#15" y="19.539"/><use xlink:href="#16" y="23.881"/><use xlink:href="#17" y="28.223"/><use xlink:href="#18" y="30.394"/><use xlink:href="#19" y="32.565"/><use xlink:href="#20" y="36.907"/><use xlink:href="#14" y="39.078"/><use xlink:href="#21" y="43.42"/><use xlink:href="#22" y="47.762"/></svg><svg x="3572"><use xlink:href="#a"/><use xlink:href="#b" x="1.996" y="49.908"/><use xlink:href="#10"/><use xlink:href="#11" y="4.342"/><use xlink:href="#12" y="6.513"/><use xlink:href="#13" y="10.855"/><use xlink:href="#14" y="15.197"/><use xlink:href="#15" y="19.539"/><use xlink:href="#16" y="23.881"/><use xlink:href="#17" y="28.223"/><use xlink:href="#18" y="30.394"/><use xlink:href="#19" y="32.565"/><use xlink:href="#20" y="36.907"/><use xlink:href="#14" y="39.078"/><use xlink:href="#21" y="43.42"/><use xlink:href="#22" y="47.762"/><use xlink:href="#1" y="49.933"/></svg><svg x="3666"><use xlink:href="#a"/><use xlink:href="#b" x="2.996" y="49.908"/><use xlink:href="#10"/><use xlink:href="#11" y="4.342"/><use xlink:href="#12" y="6.513"/><use xlink:href="#13" y="10.855"/><use xlink:href="#14" y="15.197"/><use xlink:href="#15" y="19.539"/><use xlink:href="#16" y="23.881"/><use xlink:href="#17" y="28.223"/><use xlink:href="#18" y="30.394"/><use xlink:href="#19" y="32.565"/><use xlink:href="#20" y="36.907"/><use xlink:href="#14" y="39.078"/><use xlink:href="#21" y="43.42"/><use xlink:href="#22" y="47.762"/><text y="51.603" class="f">λ</text><text x="2.004" y="51.603" class="g">n</text></svg><svg x="3760"><use xlink:href="#a"/><use xlink:href="#b" x="3.996" y="49.908"/><use xlink:href="#10"/><use xlink:href="#11" y="4.342"/><use xlink:href="#12" y="6.513"/><use xlink:href="#13" y="10.855"/><use xlink:href="#14" y="15.197"/><use xlink:href="#15" y="19.539"/><use xlink:href="#16" y="23.881"/><use xlink:href="#17" y="28.223"/><use xlink:href="#18" y="30.394"/><use xlink:href="#19" y="32.565"/><use xlink:href="#20" y="36.907"/><use xlink:href="#14" y="39.078"/><use xlink:href="#21" y="43.42"/><use xlink:href="#22" y="47.762"/><text y="51.603" class="f">λ</text><text x="2.004" y="51.603" class="g">np</text></svg><svg x="3854"><use xlink:href="#a"/><use xlink:href="#b" x="4.996" y="49.908"/><use xlink:href="#10"/><use xlink:href="#11" y="4.342"/><use xlink:href="#12" y="6.513"/><use xlink:href="#13" y="10.855"/><use xlink:href="#14" y="15.197"/><use xlink:href="#15" y="19.539"/><use xlink:href="#16" y="23.881"/><use xlink:href="#17" y="28.223"/><use xlink:href="#18" y="30.394"/><use xlink:href="#19" y="32.565"/><use xlink:href="#20" y="36.907"/><use xlink:href="#14" y="39.078"/><use xlink:href="#21" y="43.42"/><use xlink:href="#22" y="47.762"/><use xlink:href="#23" y="49.933"/></svg><svg x="3948"><use xlink:href="#a"/><use xlink:href="#b" x="5.996" y="49.908"/><use xlink:href="#10"/><use xlink:href="#11" y="4.342"/><use xlink:href="#12" y="6.513"/><use xlink:href="#13" y="10.855"/><use xlink:href="#14" y="15.197"/><use xlink:href="#15" y="19.539"/><use xlink:href="#16" y="23.881"/><use xlink:href="#17" y="28.223"/><use xlink:href="#18" y="30.394"/><use xlink:href="#19" y="32.565"/><use xlink:href="#20" y="36.907"/><use xlink:href="#14" y="39.078"/><use xlink:href="#21" y="43.42"/><use xlink:href="#22" y="47.762"/><use xlink:href="#23" y="49.933"/></svg><svg x="4042"><use xlink:href="#a"/><use xlink:href="#b" x="6.996" y="49.908"/><use xlink:href="#10"/><use xlink:href="#11" y="4.342"/><use xlink:href="#12" y="6.513"/><use xlink:href="#13" y="10.855"/><use xlink:href="#14" y="15.197"/><use xlink:href="#15" y="19.539"/><use xlink:href="#16" y="23.881"/><use xlink:href="#17" y="28.223"/><use xlink:href="#18" y="30.394"/><use xlink:href="#19" y="32.565"/><use xlink:href="#20" y="36.907"/><use xlink:href="#14" y="39.078"/><use xlink:href="#21" y="43.42"/><use xlink:href="#22" y="47.762"/><text y="51.603" class="f">λ</text><text x="2.004" y="51.603" class="g">npx</text><text x="6.012" y="51.603" class="g">d</text></svg><svg x="4136"><use xlink:href="#a"/><use xlink:href="#b" x="7.996" y="49.908"/><use xlink:href="#10"/><use xlink:href="#11" y="4.342"/><use xlink:href="#12" y="6.513"/><use xlink:href="#13" y="10.855"/><use xlink:href="#14" y="15.197"/><use xlink:href="#15" y="19.539"/><use xlink:href="#16" y="23.881"/><use xlink:href="#17" y="28.223"/><use xlink:href="#18" y="30.394"/><use xlink:href="#19" y="32.565"/><use xlink:href="#20" y="36.907"/><use xlink:href="#14" y="39.078"/><use xlink:href="#21" y="43.42"/><use xlink:href="#22" y="47.762"/><text y="51.603" class="f">λ</text><text x="2.004" y="51.603" class="g">npx</text><text x="6.012" y="51.603" class="g">dc</text></svg><svg x="4230"><use xlink:href="#a"/><use xlink:href="#b" x="8.996" y="49.908"/><use xlink:href="#10"/><use xlink:href="#11" y="4.342"/><use xlink:href="#12" y="6.513"/><use xlink:href="#13" y="10.855"/><use xlink:href="#14" y="15.197"/><use xlink:href="#15" y="19.539"/><use xlink:href="#16" y="23.881"/><use xlink:href="#17" y="28.223"/><use xlink:href="#18" y="30.394"/><use xlink:href="#19" y="32.565"/><use xlink:href="#20" y="36.907"/><use xlink:href="#14" y="39.078"/><use xlink:href="#21" y="43.42"/><use xlink:href="#22" y="47.762"/><use xlink:href="#24" y="49.933"/></svg><svg x="4324"><use xlink:href="#a"/><use xlink:href="#b" x="9.996" y="49.908"/><use xlink:href="#10"/><use xlink:href="#11" y="4.342"/><use xlink:href="#12" y="6.513"/><use xlink:href="#13" y="10.855"/><use xlink:href="#14" y="15.197"/><use xlink:href="#15" y="19.539"/><use xlink:href="#16" y="23.881"/><use xlink:href="#17" y="28.223"/><use xlink:href="#18" y="30.394"/><use xlink:href="#19" y="32.565"/><use xlink:href="#20" y="36.907"/><use xlink:href="#14" y="39.078"/><use xlink:href="#21" y="43.42"/><use xlink:href="#22" y="47.762"/><use xlink:href="#24" y="49.933"/></svg><svg x="4418"><use xlink:href="#a"/><use xlink:href="#b" x="10.996" y="49.908"/><use xlink:href="#10"/><use xlink:href="#11" y="4.342"/><use xlink:href="#12" y="6.513"/><use xlink:href="#13" y="10.855"/><use xlink:href="#14" y="15.197"/><use xlink:href="#15" y="19.539"/><use xlink:href="#16" y="23.881"/><use xlink:href="#17" y="28.223"/><use xlink:href="#18" y="30.394"/><use xlink:href="#19" y="32.565"/><use xlink:href="#20" y="36.907"/><use xlink:href="#14" y="39.078"/><use xlink:href="#21" y="43.42"/><use xlink:href="#22" y="47.762"/><text y="51.603" class="f">λ</text><text x="2.004" y="51.603" class="g">npx</text><text x="6.012" y="51.603" class="g">dcu</text><text x="10.02" y="51.603" class="g">-</text></svg><svg x="4512"><use xlink:href="#a"/><use xlink:href="#b" x="11.996" y="49.908"/><use xlink:href="#10"/><use xlink:href="#11" y="4.342"/><use xlink:href="#12" y="6.513"/><use xlink:href="#13" y="10.855"/><use xlink:href="#14" y="15.197"/><use xlink:href="#15" y="19.539"/><use xlink:href="#16" y="23.881"/><use xlink:href="#17" y="28.223"/><use xlink:href="#18" y="30.394"/><use xlink:href="#19" y="32.565"/><use xlink:href="#20" y="36.907"/><use xlink:href="#14" y="39.078"/><use xlink:href="#21" y="43.42"/><use xlink:href="#22" y="47.762"/><use xlink:href="#25" y="49.933"/></svg><svg x="4606"><use xlink:href="#a"/><use xlink:href="#b" x="12.996" y="49.908"/><use xlink:href="#10"/><use xlink:href="#11" y="4.342"/><use xlink:href="#12" y="6.513"/><use xlink:href="#13" y="10.855"/><use xlink:href="#14" y="15.197"/><use xlink:href="#15" y="19.539"/><use xlink:href="#16" y="23.881"/><use xlink:href="#17" y="28.223"/><use xlink:href="#18" y="30.394"/><use xlink:href="#19" y="32.565"/><use xlink:href="#20" y="36.907"/><use xlink:href="#14" y="39.078"/><use xlink:href="#21" y="43.42"/><use xlink:href="#22" y="47.762"/><use xlink:href="#25" y="49.933"/></svg><svg x="4700"><use xlink:href="#a"/><use xlink:href="#b" x="13.996" y="49.908"/><use xlink:href="#10"/><use xlink:href="#11" y="4.342"/><use xlink:href="#12" y="6.513"/><use xlink:href="#13" y="10.855"/><use xlink:href="#14" y="15.197"/><use xlink:href="#15" y="19.539"/><use xlink:href="#16" y="23.881"/><use xlink:href="#17" y="28.223"/><use xlink:href="#18" y="30.394"/><use xlink:href="#19" y="32.565"/><use xlink:href="#20" y="36.907"/><use xlink:href="#14" y="39.078"/><use xlink:href="#21" y="43.42"/><use xlink:href="#22" y="47.762"/><text y="51.603" class="f">λ</text><text x="2.004" y="51.603" class="g">npx</text><text x="6.012" y="51.603" class="g">dcu</text><text x="10.02" y="51.603" class="g">-k</text><text x="13.026" y="51.603" class="g">$</text></svg><svg x="4794"><use xlink:href="#a"/><use xlink:href="#b" x="14.996" y="49.908"/><use xlink:href="#10"/><use xlink:href="#11" y="4.342"/><use xlink:href="#12" y="6.513"/><use xlink:href="#13" y="10.855"/><use xlink:href="#14" y="15.197"/><use xlink:href="#15" y="19.539"/><use xlink:href="#16" y="23.881"/><use xlink:href="#17" y="28.223"/><use xlink:href="#18" y="30.394"/><use xlink:href="#19" y="32.565"/><use xlink:href="#20" y="36.907"/><use xlink:href="#14" y="39.078"/><use xlink:href="#21" y="43.42"/><use xlink:href="#22" y="47.762"/><text y="51.603" class="f">λ</text><text x="2.004" y="51.603" class="g">npx</text><text x="6.012" y="51.603" class="g">dcu</text><text x="10.02" y="51.603" class="g">-k</text><text x="13.026" y="51.603" class="g">$K</text></svg><svg x="4888"><use xlink:href="#a"/><use xlink:href="#b" x="15.996" y="49.908"/><use xlink:href="#10"/><use xlink:href="#11" y="4.342"/><use xlink:href="#12" y="6.513"/><use xlink:href="#13" y="10.855"/><use xlink:href="#14" y="15.197"/><use xlink:href="#15" y="19.539"/><use xlink:href="#16" y="23.881"/><use xlink:href="#17" y="28.223"/><use xlink:href="#18" y="30.394"/><use xlink:href="#19" y="32.565"/><use xlink:href="#20" y="36.907"/><use xlink:href="#14" y="39.078"/><use xlink:href="#21" y="43.42"/><use xlink:href="#22" y="47.762"/><text y="51.603" class="f">λ</text><text x="2.004" y="51.603" class="g">npx</text><text x="6.012" y="51.603" class="g">dcu</text><text x="10.02" y="51.603" class="g">-k</text><text x="13.026" y="51.603" class="g">$KT</text></svg><svg x="4982"><use xlink:href="#a"/><use xlink:href="#b" x="16.996" y="49.908"/><use xlink:href="#10"/><use xlink:href="#11" y="4.342"/><use xlink:href="#12" y="6.513"/><use xlink:href="#13" y="10.855"/><use xlink:href="#14" y="15.197"/><use xlink:href="#15" y="19.539"/><use xlink:href="#16" y="23.881"/><use xlink:href="#17" y="28.223"/><use xlink:href="#18" y="30.394"/><use xlink:href="#19" y="32.565"/><use xlink:href="#20" y="36.907"/><use xlink:href="#14" y="39.078"/><use xlink:href="#21" y="43.42"/><use xlink:href="#22" y="47.762"/><text y="51.603" class="f">λ</text><text x="2.004" y="51.603" class="g">npx</text><text x="6.012" y="51.603" class="g">dcu</text><text x="10.02" y="51.603" class="g">-k</text><text x="13.026" y="51.603" class="g">$KTE</text></svg><svg x="5076"><use xlink:href="#a"/><use xlink:href="#b" x="17.996" y="49.908"/><use xlink:href="#10"/><use xlink:href="#11" y="4.342"/><use xlink:href="#12" y="6.513"/><use xlink:href="#13" y="10.855"/><use xlink:href="#14" y="15.197"/><use xlink:href="#15" y="19.539"/><use xlink:href="#16" y="23.881"/><use xlink:href="#17" y="28.223"/><use xlink:href="#18" y="30.394"/><use xlink:href="#19" y="32.565"/><use xlink:href="#20" y="36.907"/><use xlink:href="#14" y="39.078"/><use xlink:href="#21" y="43.42"/><use xlink:href="#22" y="47.762"/><text y="51.603" class="f">λ</text><text x="2.004" y="51.603" class="g">npx</text><text x="6.012" y="51.603" class="g">dcu</text><text x="10.02" y="51.603" class="g">-k</text><text x="13.026" y="51.603" class="g">$KTES</text></svg><svg x="5170"><use xlink:href="#a"/><use xlink:href="#b" x="18.996" y="49.908"/><use xlink:href="#10"/><use xlink:href="#11" y="4.342"/><use xlink:href="#12" y="6.513"/><use xlink:href="#13" y="10.855"/><use xlink:href="#14" y="15.197"/><use xlink:href="#15" y="19.539"/><use xlink:href="#16" y="23.881"/><use xlink:href="#17" y="28.223"/><use xlink:href="#18" y="30.394"/><use xlink:href="#19" y="32.565"/><use xlink:href="#20" y="36.907"/><use xlink:href="#14" y="39.078"/><use xlink:href="#21" y="43.42"/><use xlink:href="#22" y="47.762"/><use xlink:href="#26" y="49.933"/></svg><svg x="5264"><use xlink:href="#a"/><use xlink:href="#b" x="19.996" y="49.908"/><use xlink:href="#10"/><use xlink:href="#11" y="4.342"/><use xlink:href="#12" y="6.513"/><use xlink:href="#13" y="10.855"/><use xlink:href="#14" y="15.197"/><use xlink:href="#15" y="19.539"/><use xlink:href="#16" y="23.881"/><use xlink:href="#17" y="28.223"/><use xlink:href="#18" y="30.394"/><use xlink:href="#19" y="32.565"/><use xlink:href="#20" y="36.907"/><use xlink:href="#14" y="39.078"/><use xlink:href="#21" y="43.42"/><use xlink:href="#22" y="47.762"/><use xlink:href="#26" y="49.933"/></svg><svg x="5358"><use xlink:href="#a"/><use xlink:href="#b" x="20.996" y="49.908"/><use xlink:href="#10"/><use xlink:href="#11" y="4.342"/><use xlink:href="#12" y="6.513"/><use xlink:href="#13" y="10.855"/><use xlink:href="#14" y="15.197"/><use xlink:href="#15" y="19.539"/><use xlink:href="#16" y="23.881"/><use xlink:href="#17" y="28.223"/><use xlink:href="#18" y="30.394"/><use xlink:href="#19" y="32.565"/><use xlink:href="#20" y="36.907"/><use xlink:href="#14" y="39.078"/><use xlink:href="#21" y="43.42"/><use xlink:href="#22" y="47.762"/><text y="51.603" class="f">λ</text><text x="2.004" y="51.603" class="g">npx</text><text x="6.012" y="51.603" class="g">dcu</text><text x="10.02" y="51.603" class="g">-k</text><text x="13.026" y="51.603" class="g">$KTEST</text><text x="20.04" y="51.603" class="g">-</text></svg><svg x="5452"><use xlink:href="#a"/><use xlink:href="#b" x="21.996" y="49.908"/><use xlink:href="#10"/><use xlink:href="#11" y="4.342"/><use xlink:href="#12" y="6.513"/><use xlink:href="#13" y="10.855"/><use xlink:href="#14" y="15.197"/><use xlink:href="#15" y="19.539"/><use xlink:href="#16" y="23.881"/><use xlink:href="#17" y="28.223"/><use xlink:href="#18" y="30.394"/><use xlink:href="#19" y="32.565"/><use xlink:href="#20" y="36.907"/><use xlink:href="#14" y="39.078"/><use xlink:href="#21" y="43.42"/><use xlink:href="#22" y="47.762"/><use xlink:href="#27" y="49.933"/></svg><svg x="5546"><use xlink:href="#a"/><use xlink:href="#b" x="22.996" y="49.908"/><use xlink:href="#10"/><use xlink:href="#11" y="4.342"/><use xlink:href="#12" y="6.513"/><use xlink:href="#13" y="10.855"/><use xlink:href="#14" y="15.197"/><use xlink:href="#15" y="19.539"/><use xlink:href="#16" y="23.881"/><use xlink:href="#17" y="28.223"/><use xlink:href="#18" y="30.394"/><use xlink:href="#19" y="32.565"/><use xlink:href="#20" y="36.907"/><use xlink:href="#14" y="39.078"/><use xlink:href="#21" y="43.42"/><use xlink:href="#22" y="47.762"/><use xlink:href="#27" y="49.933"/></svg><svg x="5640"><use xlink:href="#a"/><use xlink:href="#b" x="23.996" y="49.908"/><use xlink:href="#10"/><use xlink:href="#11" y="4.342"/><use xlink:href="#12" y="6.513"/><use xlink:href="#13" y="10.855"/><use xlink:href="#14" y="15.197"/><use xlink:href="#15" y="19.539"/><use xlink:href="#16" y="23.881"/><use xlink:href="#17" y="28.223"/><use xlink:href="#18" y="30.394"/><use xlink:href="#19" y="32.565"/><use xlink:href="#20" y="36.907"/><use xlink:href="#14" y="39.078"/><use xlink:href="#21" y="43.42"/><use xlink:href="#22" y="47.762"/><text y="51.603" class="f">λ</text><text x="2.004" y="51.603" class="g">npx</text><text x="6.012" y="51.603" class="g">dcu</text><text x="10.02" y="51.603" class="g">-k</text><text x="13.026" y="51.603" class="g">$KTEST</text><text x="20.04" y="51.603" class="g">-n</text><text x="23.046" y="51.603" class="g">$</text></svg><svg x="5734"><use xlink:href="#a"/><use xlink:href="#b" x="24.996" y="49.908"/><use xlink:href="#10"/><use xlink:href="#11" y="4.342"/><use xlink:href="#12" y="6.513"/><use xlink:href="#13" y="10.855"/><use xlink:href="#14" y="15.197"/><use xlink:href="#15" y="19.539"/><use xlink:href="#16" y="23.881"/><use xlink:href="#17" y="28.223"/><use xlink:href="#18" y="30.394"/><use xlink:href="#19" y="32.565"/><use xlink:href="#20" y="36.907"/><use xlink:href="#14" y="39.078"/><use xlink:href="#21" y="43.42"/><use xlink:href="#22" y="47.762"/><text y="51.603" class="f">λ</text><text x="2.004" y="51.603" class="g">npx</text><text x="6.012" y="51.603" class="g">dcu</text><text x="10.02" y="51.603" class="g">-k</text><text x="13.026" y="51.603" class="g">$KTEST</text><text x="20.04" y="51.603" class="g">-n</text><text x="23.046" y="51.603" class="g">$N</text></svg><svg x="5828"><use xlink:href="#a"/><use xlink:href="#b" x="25.996" y="49.908"/><use xlink:href="#10"/><use xlink:href="#11" y="4.342"/><use xlink:href="#12" y="6.513"/><use xlink:href="#13" y="10.855"/><use xlink:href="#14" y="15.197"/><use xlink:href="#15" y="19.539"/><use xlink:href="#16" y="23.881"/><use xlink:href="#17" y="28.223"/><use xlink:href="#18" y="30.394"/><use xlink:href="#19" y="32.565"/><use xlink:href="#20" y="36.907"/><use xlink:href="#14" y="39.078"/><use xlink:href="#21" y="43.42"/><use xlink:href="#22" y="47.762"/><text y="51.603" class="f">λ</text><text x="2.004" y="51.603" class="g">npx</text><text x="6.012" y="51.603" class="g">dcu</text><text x="10.02" y="51.603" class="g">-k</text><text x="13.026" y="51.603" class="g">$KTEST</text><text x="20.04" y="51.603" class="g">-n</text><text x="23.046" y="51.603" class="g">$NT</text></svg><svg x="5922"><use xlink:href="#a"/><use xlink:href="#b" x="26.996" y="49.908"/><use xlink:href="#10"/><use xlink:href="#11" y="4.342"/><use xlink:href="#12" y="6.513"/><use xlink:href="#13" y="10.855"/><use xlink:href="#14" y="15.197"/><use xlink:href="#15" y="19.539"/><use xlink:href="#16" y="23.881"/><use xlink:href="#17" y="28.223"/><use xlink:href="#18" y="30.394"/><use xlink:href="#19" y="32.565"/><use xlink:href="#20" y="36.907"/><use xlink:href="#14" y="39.078"/><use xlink:href="#21" y="43.42"/><use xlink:href="#22" y="47.762"/><text y="51.603" class="f">λ</text><text x="2.004" y="51.603" class="g">npx</text><text x="6.012" y="51.603" class="g">dcu</text><text x="10.02" y="51.603" class="g">-k</text><text x="13.026" y="51.603" class="g">$KTEST</text><text x="20.04" y="51.603" class="g">-n</text><text x="23.046" y="51.603" class="g">$NTE</text></svg><svg x="6016"><use xlink:href="#a"/><use xlink:href="#b" x="27.996" y="49.908"/><use xlink:href="#10"/><use xlink:href="#11" y="4.342"/><use xlink:href="#12" y="6.513"/><use xlink:href="#13" y="10.855"/><use xlink:href="#14" y="15.197"/><use xlink:href="#15" y="19.539"/><use xlink:href="#16" y="23.881"/><use xlink:href="#17" y="28.223"/><use xlink:href="#18" y="30.394"/><use xlink:href="#19" y="32.565"/><use xlink:href="#20" y="36.907"/><use xlink:href="#14" y="39.078"/><use xlink:href="#21" y="43.42"/><use xlink:href="#22" y="47.762"/><text y="51.603" class="f">λ</text><text x="2.004" y="51.603" class="g">npx</text><text x="6.012" y="51.603" class="g">dcu</text><text x="10.02" y="51.603" class="g">-k</text><text x="13.026" y="51.603" class="g">$KTEST</text><text x="20.04" y="51.603" class="g">-n</text><text x="23.046" y="51.603" class="g">$NTES</text></svg><svg x="6110"><use xlink:href="#a"/><use xlink:href="#b" x="28.996" y="49.908"/><use xlink:href="#10"/><use xlink:href="#11" y="4.342"/><use xlink:href="#12" y="6.513"/><use xlink:href="#13" y="10.855"/><use xlink:href="#14" y="15.197"/><use xlink:href="#15" y="19.539"/><use xlink:href="#16" y="23.881"/><use xlink:href="#17" y="28.223"/><use xlink:href="#18" y="30.394"/><use xlink:href="#19" y="32.565"/><use xlink:href="#20" y="36.907"/><use xlink:href="#14" y="39.078"/><use xlink:href="#21" y="43.42"/><use xlink:href="#22" y="47.762"/><use xlink:href="#28" y="49.933"/></svg><svg x="6204"><use xlink:href="#a"/><use xlink:href="#b" x="29.996" y="49.908"/><use xlink:href="#10"/><use xlink:href="#11" y="4.342"/><use xlink:href="#12" y="6.513"/><use xlink:href="#13" y="10.855"/><use xlink:href="#14" y="15.197"/><use xlink:href="#15" y="19.539"/><use xlink:href="#16" y="23.881"/><use xlink:href="#17" y="28.223"/><use xlink:href="#18" y="30.394"/><use xlink:href="#19" y="32.565"/><use xlink:href="#20" y="36.907"/><use xlink:href="#14" y="39.078"/><use xlink:href="#21" y="43.42"/><use xlink:href="#22" y="47.762"/><use xlink:href="#28" y="49.933"/></svg><svg x="6298"><use xlink:href="#a"/><use xlink:href="#b" x="30.996" y="49.908"/><use xlink:href="#10"/><use xlink:href="#11" y="4.342"/><use xlink:href="#12" y="6.513"/><use xlink:href="#13" y="10.855"/><use xlink:href="#14" y="15.197"/><use xlink:href="#15" y="19.539"/><use xlink:href="#16" y="23.881"/><use xlink:href="#17" y="28.223"/><use xlink:href="#18" y="30.394"/><use xlink:href="#19" y="32.565"/><use xlink:href="#20" y="36.907"/><use xlink:href="#14" y="39.078"/><use xlink:href="#21" y="43.42"/><use xlink:href="#22" y="47.762"/><text y="51.603" class="f">λ</text><text x="2.004" y="51.603" class="g">npx</text><text x="6.012" y="51.603" class="g">dcu</text><text x="10.02" y="51.603" class="g">-k</text><text x="13.026" y="51.603" class="g">$KTEST</text><text x="20.04" y="51.603" class="g">-n</text><text x="23.046" y="51.603" class="g">$NTEST</text><text x="30.06" y="51.603" class="g">-</text></svg><svg x="6392"><use xlink:href="#a"/><use xlink:href="#b" x="31.996" y="49.908"/><use xlink:href="#10"/><use xlink:href="#11" y="4.342"/><use xlink:href="#12" y="6.513"/><use xlink:href="#13" y="10.855"/><use xlink:href="#14" y="15.197"/><use xlink:href="#15" y="19.539"/><use xlink:href="#16" y="23.881"/><use xlink:href="#17" y="28.223"/><use xlink:href="#18" y="30.394"/><use xlink:href="#19" y="32.565"/><use xlink:href="#20" y="36.907"/><use xlink:href="#14" y="39.078"/><use xlink:href="#21" y="43.42"/><use xlink:href="#22" y="47.762"/><use xlink:href="#29" y="49.933"/></svg><svg x="6486"><use xlink:href="#a"/><use xlink:href="#b" x="32.996" y="49.908"/><use xlink:href="#10"/><use xlink:href="#11" y="4.342"/><use xlink:href="#12" y="6.513"/><use xlink:href="#13" y="10.855"/><use xlink:href="#14" y="15.197"/><use xlink:href="#15" y="19.539"/><use xlink:href="#16" y="23.881"/><use xlink:href="#17" y="28.223"/><use xlink:href="#18" y="30.394"/><use xlink:href="#19" y="32.565"/><use xlink:href="#20" y="36.907"/><use xlink:href="#14" y="39.078"/><use xlink:href="#21" y="43.42"/><use xlink:href="#22" y="47.762"/><use xlink:href="#29" y="49.933"/></svg><svg x="6580"><use xlink:href="#a"/><use xlink:href="#b" x="33.996" y="49.908"/><use xlink:href="#10"/><use xlink:href="#11" y="4.342"/><use xlink:href="#12" y="6.513"/><use xlink:href="#13" y="10.855"/><use xlink:href="#14" y="15.197"/><use xlink:href="#15" y="19.539"/><use xlink:href="#16" y="23.881"/><use xlink:href="#17" y="28.223"/><use xlink:href="#18" y="30.394"/><use xlink:href="#19" y="32.565"/><use xlink:href="#20" y="36.907"/><use xlink:href="#14" y="39.078"/><use xlink:href="#21" y="43.42"/><use xlink:href="#22" y="47.762"/><use xlink:href="#30" y="49.933"/></svg><svg x="6674"><use xlink:href="#a"/><use xlink:href="#b" x="-.004" y="49.908"/><use xlink:href="#11" y="2.171"/><use xlink:href="#12" y="4.342"/><use xlink:href="#13" y="8.684"/><use xlink:href="#14" y="13.026"/><use xlink:href="#15" y="17.368"/><use xlink:href="#16" y="21.71"/><use xlink:href="#17" y="26.052"/><use xlink:href="#18" y="28.223"/><use xlink:href="#19" y="30.394"/><use xlink:href="#20" y="34.736"/><use xlink:href="#14" y="36.907"/><use xlink:href="#21" y="41.249"/><use xlink:href="#22" y="45.591"/><use xlink:href="#30" y="47.762"/></svg><svg x="6768"><use xlink:href="#a"/><use xlink:href="#b" x="-.004" y="49.908"/><use xlink:href="#11"/><use xlink:href="#12" y="2.171"/><use xlink:href="#13" y="6.513"/><use xlink:href="#14" y="10.855"/><use xlink:href="#15" y="15.197"/><use xlink:href="#16" y="19.539"/><use xlink:href="#17" y="23.881"/><use xlink:href="#18" y="26.052"/><use xlink:href="#19" y="28.223"/><use xlink:href="#20" y="32.565"/><use xlink:href="#14" y="34.736"/><use xlink:href="#21" y="39.078"/><use xlink:href="#22" y="43.42"/><use xlink:href="#30" y="45.591"/></svg></svg></g></g></svg></svg>